<svg width="15" height="14" viewBox="0 0 15 14" fill="none" xmlns="http://www.w3.org/2000/svg">
<path fill-rule="evenodd" clip-rule="evenodd" d="M14.9733 6.65245C14.8987 4.99875 13.4816 3.72108 11.8407 3.79602H3.71054C3.4123 3.79602 3.1138 3.5704 3.1138 3.19465C3.1138 2.8189 3.33768 2.66849 3.71054 2.66849H11.9897C11.915 1.61616 11.1693 0.488628 10.0505 0.338219C7.66381 -0.11274 5.20224 -0.11274 2.81557 0.338219C1.47311 0.563833 0.503253 1.91671 0.279644 3.19465C-0.0932148 5.75026 -0.0932148 8.30587 0.279644 10.8618C0.577878 12.365 1.77135 13.4926 3.26305 13.7182C6.32109 14.0939 9.23014 14.0939 12.2135 13.7182C13.556 13.5678 14.3766 12.2901 14.6748 11.0122C14.9731 9.50888 15.0477 8.0808 14.9731 6.65245H14.9733ZM12.3628 8.38135V8.90751C12.3628 9.20806 12.1389 9.50888 11.7661 9.50888C11.3932 9.50888 11.1693 9.28326 11.1693 8.90751V8.38135C10.9489 8.24576 10.8711 8.00559 10.8711 7.77998C10.8711 7.32902 11.3076 6.95327 11.7551 6.95327C12.128 6.95327 12.6241 7.2557 12.6241 7.77621C12.6367 8.04279 12.4981 8.30938 12.3628 8.38162V8.38135Z" fill="#00AED6"/>
</svg>
