<svg width="14" height="14" viewBox="0 0 14 14" fill="none" xmlns="http://www.w3.org/2000/svg">
<path d="M14 7C14 10.866 10.866 14 7.00002 14C3.13402 14 0 10.866 0 7C0 3.13399 3.13402 0 7.00002 0C10.866 0 14 3.13399 14 7Z" fill="#44D62C"/>
<path d="M13.0343 6.99994C13.0343 10.3327 10.3326 13.0344 6.99984 13.0344C3.66706 13.0344 0.965332 10.3327 0.965332 6.99994C0.965332 3.66719 3.66706 0.965454 6.99984 0.965454C10.3326 0.965454 13.0343 3.66719 13.0343 6.99994Z" fill="#0F4C81"/>
<path d="M3.89731 6.87689C3.84566 6.56593 3.60034 6.31994 3.28933 6.2677C3.24858 6.26069 3.20716 6.25684 3.16447 6.25684C2.75405 6.25684 2.42139 6.58949 2.42139 6.99987C2.42139 7.41029 2.75405 7.74294 3.16447 7.74294C3.57486 7.74294 3.90751 7.41029 3.90751 6.99987C3.90751 6.95782 3.90431 6.91702 3.89731 6.87689Z" fill="#44D62C"/>
<path d="M11.5682 6.87689C11.5166 6.56593 11.2713 6.31994 10.9603 6.2677C10.9195 6.26069 10.8781 6.25684 10.8354 6.25684C10.425 6.25684 10.0923 6.58949 10.0923 6.99987C10.0923 7.41029 10.425 7.74294 10.8354 7.74294C11.2458 7.74294 11.5785 7.41029 11.5785 6.99987C11.5785 6.95782 11.5752 6.91702 11.5682 6.87689Z" fill="#44D62C"/>
<path d="M7.73275 3.16193C7.68108 2.85097 7.43575 2.60495 7.12479 2.55272C7.084 2.54572 7.04258 2.54187 6.99989 2.54187C6.58945 2.54187 6.25684 2.87452 6.25684 3.2849C6.25684 3.69529 6.58945 4.02795 6.99989 4.02795C7.41027 4.02795 7.74294 3.69529 7.74294 3.2849C7.74294 3.24287 7.73973 3.20207 7.73275 3.16193Z" fill="#44D62C"/>
<path d="M7.73275 10.5926C7.68108 10.2816 7.43575 10.0356 7.12479 9.98338C7.084 9.97638 7.04258 9.97253 6.99989 9.97253C6.58945 9.97253 6.25684 10.3052 6.25684 10.7156C6.25684 11.1259 6.58945 11.4586 6.99989 11.4586C7.41027 11.4586 7.74294 11.1259 7.74294 10.7156C7.74294 10.6735 7.73973 10.6327 7.73275 10.5926Z" fill="#44D62C"/>
<rect x="5.28467" y="5.28955" width="3.4311" height="3.43111" fill="#44D62C"/>
</svg>
