<svg width="20" height="20" viewBox="0 0 20 20" fill="none" xmlns="http://www.w3.org/2000/svg">
<mask id="mask0_1499_693" style="mask-type:luminance" maskUnits="userSpaceOnUse" x="0" y="0" width="20" height="20">
<path fill-rule="evenodd" clip-rule="evenodd" d="M0.0999999 19.331C0.0811567 19.3988 0.0805292 19.4704 0.0981808 19.5385C0.115832 19.6066 0.151138 19.6689 0.200536 19.719C0.249933 19.7691 0.311674 19.8053 0.379527 19.8239C0.447381 19.8425 0.518946 19.8429 0.587 19.825L5.194 18.621C6.65568 19.4128 8.29168 19.8276 9.954 19.828H9.958C15.444 19.828 19.916 15.382 19.916 9.91605C19.9194 8.61259 19.6635 7.32149 19.1632 6.11785C18.6629 4.91422 17.9283 3.8221 17.002 2.90505C16.0773 1.98046 14.9789 1.24782 13.77 0.749271C12.5612 0.25072 11.2656 -0.00390357 9.958 4.52349e-05C4.472 4.52349e-05 0 4.44604 0 9.91105C0 11.65 0.458 13.358 1.33 14.865L0.0999999 19.331ZM6.802 5.17005C6.985 5.17505 7.188 5.18505 7.381 5.61305C7.509 5.89805 7.724 6.42305 7.9 6.85105C8.037 7.18405 8.149 7.45805 8.177 7.51405C8.242 7.64205 8.281 7.78905 8.197 7.96205L8.169 8.02005C8.101 8.16005 8.053 8.26005 7.939 8.39005L7.796 8.56005C7.711 8.66405 7.626 8.76605 7.554 8.83805C7.425 8.96605 7.292 9.10404 7.44 9.36004C7.588 9.61604 8.108 10.458 8.875 11.137C9.43598 11.643 10.0797 12.0489 10.778 12.337C10.848 12.367 10.9047 12.3924 10.948 12.413C11.205 12.541 11.358 12.521 11.506 12.349C11.655 12.176 12.149 11.6 12.323 11.344C12.491 11.088 12.663 11.128 12.901 11.216C13.139 11.305 14.405 11.926 14.662 12.053L14.805 12.123C14.984 12.208 15.105 12.267 15.157 12.353C15.221 12.462 15.221 12.973 15.009 13.575C14.791 14.175 13.742 14.751 13.267 14.795L13.132 14.811C12.696 14.863 12.144 14.931 10.176 14.156C7.75 13.202 6.149 10.836 5.826 10.357L5.773 10.281L5.768 10.273C5.62 10.076 4.719 8.87105 4.719 7.62705C4.719 6.43705 5.306 5.81705 5.573 5.53505L5.62 5.48505C5.70642 5.38742 5.81202 5.30862 5.93021 5.25357C6.0484 5.19852 6.17666 5.16838 6.307 5.16505C6.48 5.16505 6.654 5.16505 6.802 5.17005Z" fill="white"/>
</mask>
<g mask="url(#mask0_1499_693)">
<path fill-rule="evenodd" clip-rule="evenodd" d="M0.0999999 19.331C0.0811567 19.3988 0.0805292 19.4704 0.0981808 19.5385C0.115832 19.6066 0.151138 19.6689 0.200536 19.719C0.249933 19.7691 0.311674 19.8053 0.379527 19.8239C0.447381 19.8425 0.518946 19.8429 0.587 19.825L5.194 18.621C6.65568 19.4128 8.29168 19.8276 9.954 19.828H9.958C15.444 19.828 19.916 15.382 19.916 9.91605C19.9194 8.61259 19.6635 7.32149 19.1632 6.11785C18.6629 4.91422 17.9283 3.8221 17.002 2.90505C16.0773 1.98046 14.9789 1.24782 13.77 0.749271C12.5612 0.25072 11.2656 -0.00390357 9.958 4.52349e-05C4.472 4.52349e-05 0 4.44604 0 9.91105C0 11.65 0.458 13.358 1.33 14.865L0.0999999 19.331ZM6.802 5.17005C6.985 5.17505 7.188 5.18505 7.381 5.61305C7.509 5.89805 7.724 6.42305 7.9 6.85105C8.037 7.18405 8.149 7.45805 8.177 7.51405C8.242 7.64205 8.281 7.78905 8.197 7.96205L8.169 8.02005C8.101 8.16005 8.053 8.26005 7.939 8.39005L7.796 8.56005C7.711 8.66405 7.626 8.76605 7.554 8.83805C7.425 8.96605 7.292 9.10404 7.44 9.36004C7.588 9.61604 8.108 10.458 8.875 11.137C9.43598 11.643 10.0797 12.0489 10.778 12.337C10.848 12.367 10.9047 12.3924 10.948 12.413C11.205 12.541 11.358 12.521 11.506 12.349C11.655 12.176 12.149 11.6 12.323 11.344C12.491 11.088 12.663 11.128 12.901 11.216C13.139 11.305 14.405 11.926 14.662 12.053L14.805 12.123C14.984 12.208 15.105 12.267 15.157 12.353C15.221 12.462 15.221 12.973 15.009 13.575C14.791 14.175 13.742 14.751 13.267 14.795L13.132 14.811C12.696 14.863 12.144 14.931 10.176 14.156C7.75 13.202 6.149 10.836 5.826 10.357L5.773 10.281L5.768 10.273C5.62 10.076 4.719 8.87105 4.719 7.62705C4.719 6.43705 5.306 5.81705 5.573 5.53505L5.62 5.48505C5.70642 5.38742 5.81202 5.30862 5.93021 5.25357C6.0484 5.19852 6.17666 5.16838 6.307 5.16505C6.48 5.16505 6.654 5.16505 6.802 5.17005Z" fill="white" stroke="white" stroke-width="2.66667" stroke-linejoin="round"/>
</g>
</svg>
